<svg width="114" height="118" viewBox="0 0 114 118" fill="none" xmlns="http://www.w3.org/2000/svg">
<path d="M112 40.4653C112 71.3918 79.2615 94.7396 56 118C30.441 92.4423 0 71.3918 0 40.4653C0 9.53884 28.8083 -23.5727 56 23.5226C82.0312 -23.5727 112 9.53884 112 40.4653Z" fill="#C9EB61"/>
<path d="M110.277 40.4652C110.277 32.9992 108.465 25.3847 105.357 18.8924C102.241 12.3845 97.8844 7.1303 92.8947 4.22508C87.9732 1.35958 82.3836 0.73511 76.4638 3.51221C70.4534 6.33185 63.9263 12.7445 57.5083 24.3559L56.0325 27.025L54.508 24.3839C47.7995 12.765 41.1262 6.34104 35.0516 3.51502C29.0698 0.73219 23.5182 1.3634 18.679 4.21947C13.7671 7.11849 9.51746 12.3654 6.48846 18.875C3.46728 25.3679 1.7231 32.9883 1.72308 40.4652C1.72308 55.3148 9.017 67.9139 19.7111 80.1104C25.0545 86.2045 31.2034 92.1497 37.6463 98.1956C43.6654 103.844 49.9547 109.592 56.0006 115.571C61.5135 110.131 67.5083 104.673 73.385 99.1643C79.7183 93.2278 85.9407 87.2091 91.4291 80.9696C102.43 68.4634 110.277 55.2955 110.277 40.4652ZM112 40.4652C112 71.3917 79.2615 94.7396 56 118C30.441 92.4423 0 71.3917 0 40.4652C0.000111564 9.5388 28.8083 -23.5726 56 23.5224C82.0311 -23.5726 112 9.5388 112 40.4652Z" fill="#3B2F41"/>
<g filter="url(#filter0_d_204_50)">
<path d="M68.2985 58.3453C67.9251 57.1638 68.7213 55.9347 69.9523 55.7925C70.0991 55.7756 70.2474 55.7752 70.3944 55.7914L71.5604 55.9199C72.3041 56.0018 73.0564 55.9009 73.7522 55.626L76.9131 54.377C77.9598 53.9635 78.8184 53.1801 79.3259 52.1755L79.5942 51.6442C79.9996 50.8418 80.1606 49.9382 80.0575 49.0453L79.7486 46.37C79.7256 46.1711 79.7579 45.9697 79.8421 45.788C80.1096 45.2101 80.814 44.9844 81.3676 45.2993L84.6582 47.171C85.3664 47.5739 86.1694 47.78 86.9841 47.7682L94.305 47.6618C94.6951 47.6561 95.0829 47.6008 95.459 47.4971L98.038 46.7863C98.5992 46.6317 99.1258 46.3718 99.59 46.0206L100.657 45.2129C101.163 44.8302 101.779 44.6226 102.413 44.6215L102.487 44.6214C103.721 44.6191 104.814 45.4206 105.183 46.5991C105.365 47.1828 105.353 47.81 105.148 48.3862L104.222 50.989C104.015 51.5712 103.692 52.1056 103.274 52.5603L101.225 54.7865C100.869 55.1728 100.45 55.4953 99.9856 55.74L90.8394 60.5585L80.8593 66.9317C80.6295 67.0784 80.3871 67.2044 80.1349 67.3082L75.4694 69.2282C74.6938 69.5473 73.8334 69.5963 73.0266 69.3671C71.7108 68.9934 70.7044 67.9306 70.4029 66.5965L69.8746 64.2588L68.922 60.3179L68.2985 58.3453Z" fill="#3B2F41"/>
</g>
<g filter="url(#filter1_d_204_50)">
<path d="M20.6289 64.4221C21.2375 63.3427 22.6793 63.0857 23.6234 63.8884C23.736 63.9841 23.8375 64.0922 23.926 64.2107L24.628 65.1506C25.0756 65.75 25.6629 66.231 26.3387 66.5519L29.4089 68.0095C30.4257 68.4922 31.5842 68.585 32.6648 68.2702L33.2362 68.1037C34.0993 67.8523 34.8696 67.3533 35.4518 66.6684L37.1962 64.6166C37.3259 64.4641 37.4951 64.3503 37.6853 64.2877C38.2903 64.0888 38.936 64.4496 39.0837 65.0691L39.9618 68.7516C40.1508 69.5441 40.5482 70.2717 41.1129 70.859L46.1875 76.1368C46.4579 76.4181 46.763 76.6637 47.0955 76.8678L49.3752 78.2676C49.8713 78.5721 50.4207 78.7797 50.9942 78.8792L52.313 79.1079C52.9377 79.2163 53.5102 79.5251 53.9438 79.9877L53.9938 80.0411C54.8383 80.942 54.9983 82.2876 54.3886 83.3615C54.0867 83.8933 53.62 84.3125 53.0589 84.556L50.5245 85.6556C49.9576 85.9015 49.3469 86.0306 48.729 86.0351L45.7034 86.0571C45.1784 86.0609 44.6567 85.9747 44.1608 85.8023L34.3965 82.4066L22.9269 79.4627C22.6628 79.3949 22.4053 79.3037 22.1573 79.1902L17.5697 77.0909C16.8071 76.7419 16.184 76.1465 15.8008 75.4005C15.1758 74.1838 15.2657 72.7229 16.0349 71.5919L17.3828 69.6102L19.6129 66.2241L20.6289 64.4221Z" fill="#3B2F41"/>
</g>
<g filter="url(#filter2_d_204_50)">
<path d="M71.5114 48C70.0949 48 68.9069 47.8 67.9473 47.4C67.0029 46.9852 66.2794 46.4519 65.7768 45.8C65.2894 45.1333 65.0305 44.437 65 43.7111C65 43.5778 65.0457 43.4667 65.1371 43.3778C65.2285 43.2889 65.3427 43.2444 65.4798 43.2444H67.5132C67.7112 43.2444 67.8559 43.2889 67.9473 43.3778C68.0539 43.4519 68.1453 43.5481 68.2214 43.6667C68.3128 43.9481 68.488 44.2296 68.7469 44.5111C69.0059 44.7778 69.3562 45 69.7979 45.1778C70.2548 45.3556 70.826 45.4444 71.5114 45.4444C72.6081 45.4444 73.423 45.2667 73.9561 44.9111C74.5044 44.5556 74.7786 44.0741 74.7786 43.4667C74.7786 43.037 74.6339 42.6963 74.3445 42.4444C74.0551 42.1778 73.6057 41.9407 72.9965 41.7333C72.4025 41.5111 71.6104 41.2815 70.6204 41.0444C69.478 40.7778 68.5185 40.4593 67.7417 40.0889C66.9801 39.7037 66.4013 39.2222 66.0053 38.6444C65.6245 38.0667 65.4341 37.3333 65.4341 36.4444C65.4341 35.5852 65.6702 34.8222 66.1424 34.1556C66.6298 33.4889 67.3152 32.963 68.1986 32.5778C69.0972 32.1926 70.1634 32 71.3972 32C72.3872 32 73.263 32.1333 74.0246 32.4C74.7862 32.6519 75.4183 32.9926 75.9209 33.4222C76.4236 33.837 76.8043 34.2889 77.0633 34.7778C77.3374 35.2519 77.4821 35.7185 77.4974 36.1778C77.4974 36.2963 77.4517 36.4074 77.3603 36.5111C77.2841 36.6 77.1699 36.6444 77.0176 36.6444H74.8928C74.7709 36.6444 74.6491 36.6148 74.5272 36.5556C74.4054 36.4963 74.3064 36.3852 74.2302 36.2222C74.1388 35.763 73.8418 35.3704 73.3392 35.0444C72.8366 34.7185 72.1892 34.5556 71.3972 34.5556C70.5747 34.5556 69.9121 34.7037 69.4095 35C68.9069 35.2963 68.6555 35.7556 68.6555 36.3778C68.6555 36.7926 68.7774 37.1407 69.0211 37.4222C69.28 37.6889 69.6837 37.9259 70.232 38.1333C70.7955 38.3407 71.5343 38.563 72.4482 38.8C73.7428 39.0815 74.8014 39.4074 75.6239 39.7778C76.4464 40.1481 77.048 40.6222 77.4288 41.2C77.8096 41.763 78 42.4815 78 43.3556C78 44.3333 77.7258 45.1704 77.1775 45.8667C76.6444 46.5481 75.8905 47.0741 74.9156 47.4444C73.9408 47.8148 72.8061 48 71.5114 48Z" fill="#3B2F41"/>
</g>
<g filter="url(#filter3_d_204_50)">
<path d="M51.5236 48C51.3782 48 51.2545 47.9467 51.1527 47.84C51.0509 47.7333 51 47.6038 51 47.4514V32.5714C51 32.4038 51.0509 32.2667 51.1527 32.16C51.2545 32.0533 51.3782 32 51.5236 32H57.3709C58.5055 32 59.4945 32.1905 60.3382 32.5714C61.1818 32.9371 61.8364 33.501 62.3018 34.2629C62.7673 35.0095 63 35.9467 63 37.0743C63 38.2171 62.7673 39.1619 62.3018 39.9086C61.8364 40.64 61.1818 41.1886 60.3382 41.5543C59.4945 41.92 58.5055 42.1029 57.3709 42.1029H54.12V47.4514C54.12 47.6038 54.0691 47.7333 53.9673 47.84C53.88 47.9467 53.7564 48 53.5964 48H51.5236ZM54.0764 39.5657H57.2618C58.1055 39.5657 58.7527 39.36 59.2036 38.9486C59.6545 38.5219 59.88 37.8971 59.88 37.0743C59.88 36.3124 59.6691 35.7029 59.2473 35.2457C58.8255 34.7733 58.1636 34.5371 57.2618 34.5371H54.0764V39.5657Z" fill="#3B2F41"/>
</g>
<g filter="url(#filter4_d_204_50)">
<path d="M41.4986 48C40.1328 48 38.9726 47.763 38.018 47.2889C37.0781 46.8 36.3585 46.1111 35.8591 45.2222C35.3598 44.3185 35.0808 43.237 35.022 41.9778C35.0073 41.3704 35 40.7185 35 40.0222C35 39.3259 35.0073 38.6593 35.022 38.0222C35.0808 36.7778 35.3598 35.7037 35.8591 34.8C36.3732 33.8963 37.1001 33.2074 38.04 32.7333C38.9946 32.2444 40.1475 32 41.4986 32C42.4973 32 43.3931 32.1333 44.1862 32.4C44.9792 32.6667 45.6548 33.037 46.2129 33.5111C46.771 33.9704 47.2042 34.5111 47.5126 35.1333C47.821 35.7556 47.9826 36.4296 47.9972 37.1556C48.0119 37.2889 47.9679 37.4 47.8651 37.4889C47.777 37.5778 47.6668 37.6222 47.5346 37.6222H45.4419C45.2803 37.6222 45.1481 37.5852 45.0453 37.5111C44.9425 37.4222 44.8691 37.2815 44.825 37.0889C44.5901 36.1111 44.1862 35.4444 43.6134 35.0889C43.0407 34.7333 42.3284 34.5556 41.4766 34.5556C40.4926 34.5556 39.7069 34.837 39.1195 35.4C38.532 35.9481 38.2163 36.8593 38.1722 38.1333C38.1282 39.3481 38.1282 40.5926 38.1722 41.8667C38.2163 43.1407 38.532 44.0593 39.1195 44.6222C39.7069 45.1704 40.4926 45.4444 41.4766 45.4444C42.3284 45.4444 43.0407 45.2667 43.6134 44.9111C44.1862 44.5407 44.5901 43.8741 44.825 42.9111C44.8691 42.7037 44.9425 42.563 45.0453 42.4889C45.1481 42.4148 45.2803 42.3778 45.4419 42.3778H47.5346C47.6668 42.3778 47.777 42.4222 47.8651 42.5111C47.9679 42.6 48.0119 42.7111 47.9972 42.8444C47.9826 43.5704 47.821 44.2444 47.5126 44.8667C47.2042 45.4889 46.771 46.037 46.2129 46.5111C45.6548 46.9704 44.9792 47.3333 44.1862 47.6C43.3931 47.8667 42.4973 48 41.4986 48Z" fill="#3B2F41"/>
</g>
<defs>
<filter id="filter0_d_204_50" x="68.2058" y="44.6213" width="45.1055" height="32.8879" filterUnits="userSpaceOnUse" color-interpolation-filters="sRGB">
<feFlood flood-opacity="0" result="BackgroundImageFix"/>
<feColorMatrix in="SourceAlpha" type="matrix" values="0 0 0 0 0 0 0 0 0 0 0 0 0 0 0 0 0 0 127 0" result="hardAlpha"/>
<feOffset dx="4" dy="4"/>
<feGaussianBlur stdDeviation="2"/>
<feComposite in2="hardAlpha" operator="out"/>
<feColorMatrix type="matrix" values="0 0 0 0 0 0 0 0 0 0 0 0 0 0 0 0 0 0 0.25 0"/>
<feBlend mode="normal" in2="BackgroundImageFix" result="effect1_dropShadow_204_50"/>
<feBlend mode="normal" in="SourceGraphic" in2="effect1_dropShadow_204_50" result="shape"/>
</filter>
<filter id="filter1_d_204_50" x="15.3879" y="63.4186" width="47.3684" height="30.6387" filterUnits="userSpaceOnUse" color-interpolation-filters="sRGB">
<feFlood flood-opacity="0" result="BackgroundImageFix"/>
<feColorMatrix in="SourceAlpha" type="matrix" values="0 0 0 0 0 0 0 0 0 0 0 0 0 0 0 0 0 0 127 0" result="hardAlpha"/>
<feOffset dx="4" dy="4"/>
<feGaussianBlur stdDeviation="2"/>
<feComposite in2="hardAlpha" operator="out"/>
<feColorMatrix type="matrix" values="0 0 0 0 0 0 0 0 0 0 0 0 0 0 0 0 0 0 0.25 0"/>
<feBlend mode="normal" in2="BackgroundImageFix" result="effect1_dropShadow_204_50"/>
<feBlend mode="normal" in="SourceGraphic" in2="effect1_dropShadow_204_50" result="shape"/>
</filter>
<filter id="filter2_d_204_50" x="65" y="28" width="21" height="24" filterUnits="userSpaceOnUse" color-interpolation-filters="sRGB">
<feFlood flood-opacity="0" result="BackgroundImageFix"/>
<feColorMatrix in="SourceAlpha" type="matrix" values="0 0 0 0 0 0 0 0 0 0 0 0 0 0 0 0 0 0 127 0" result="hardAlpha"/>
<feOffset dx="4"/>
<feGaussianBlur stdDeviation="2"/>
<feComposite in2="hardAlpha" operator="out"/>
<feColorMatrix type="matrix" values="0 0 0 0 0 0 0 0 0 0 0 0 0 0 0 0 0 0 0.25 0"/>
<feBlend mode="normal" in2="BackgroundImageFix" result="effect1_dropShadow_204_50"/>
<feBlend mode="normal" in="SourceGraphic" in2="effect1_dropShadow_204_50" result="shape"/>
</filter>
<filter id="filter3_d_204_50" x="51" y="28" width="20" height="24" filterUnits="userSpaceOnUse" color-interpolation-filters="sRGB">
<feFlood flood-opacity="0" result="BackgroundImageFix"/>
<feColorMatrix in="SourceAlpha" type="matrix" values="0 0 0 0 0 0 0 0 0 0 0 0 0 0 0 0 0 0 127 0" result="hardAlpha"/>
<feOffset dx="4"/>
<feGaussianBlur stdDeviation="2"/>
<feComposite in2="hardAlpha" operator="out"/>
<feColorMatrix type="matrix" values="0 0 0 0 0 0 0 0 0 0 0 0 0 0 0 0 0 0 0.25 0"/>
<feBlend mode="normal" in2="BackgroundImageFix" result="effect1_dropShadow_204_50"/>
<feBlend mode="normal" in="SourceGraphic" in2="effect1_dropShadow_204_50" result="shape"/>
</filter>
<filter id="filter4_d_204_50" x="35" y="28" width="21" height="24" filterUnits="userSpaceOnUse" color-interpolation-filters="sRGB">
<feFlood flood-opacity="0" result="BackgroundImageFix"/>
<feColorMatrix in="SourceAlpha" type="matrix" values="0 0 0 0 0 0 0 0 0 0 0 0 0 0 0 0 0 0 127 0" result="hardAlpha"/>
<feOffset dx="4"/>
<feGaussianBlur stdDeviation="2"/>
<feComposite in2="hardAlpha" operator="out"/>
<feColorMatrix type="matrix" values="0 0 0 0 0 0 0 0 0 0 0 0 0 0 0 0 0 0 0.25 0"/>
<feBlend mode="normal" in2="BackgroundImageFix" result="effect1_dropShadow_204_50"/>
<feBlend mode="normal" in="SourceGraphic" in2="effect1_dropShadow_204_50" result="shape"/>
</filter>
</defs>
</svg>
